PathFileType	4	(X/Y/Z)	 s08c0001.trc
DataRate	CameraRate	NumFrames	NumMarkers	Units	OrigDataRate	OrigDataStartFrame	OrigNumFrames
200	200	4	49	mm	200	251	2000
Frame#	Time	racr			lacr			c7			jug			rlel			rdr			llel			ldr			s2			lic			ric			lasi			rasi			rpsi			lpsi			rgt			lgt			rth1			rth2			rth3			rth4			rlfc			rmfc			rsh1			rsh2			rsh3			rsh4			rlmal			rmmal			rcal			rtoe			rmt5			rmt1			lth1			lth2			lth4			lth3			llfc			lmfc			llmal			lmmal			lcal			lmt1			lmt5			lsh1			lsh2			lsh3			lsh4			ltoe			
		X1	Y1	Z1	X2	Y2	Z2	X3	Y3	Z3	X4	Y4	Z4	X5	Y5	Z5	X6	Y6	Z6	X7	Y7	Z7	X8	Y8	Z8	X9	Y9	Z9	X10	Y10	Z10	X11	Y11	Z11	X12	Y12	Z12	X13	Y13	Z13	X14	Y14	Z14	X15	Y15	Z15	X16	Y16	Z16	X17	Y17	Z17	X18	Y18	Z18	X19	Y19	Z19	X20	Y20	Z20	X21	Y21	Z21	X22	Y22	Z22	X23	Y23	Z23	X24	Y24	Z24	X25	Y25	Z25	X26	Y26	Z26	X27	Y27	Z27	X28	Y28	Z28	X29	Y29	Z29	X30	Y30	Z30	X31	Y31	Z31	X32	Y32	Z32	X33	Y33	Z33	X34	Y34	Z34	X35	Y35	Z35	X36	Y36	Z36	X37	Y37	Z37	X38	Y38	Z38	X39	Y39	Z39	X40	Y40	Z40	X41	Y41	Z41	X42	Y42	Z42	X43	Y43	Z43	X44	Y44	Z44	X45	Y45	Z45	X46	Y46	Z46	X47	Y47	Z47	X48	Y48	Z48	X49	Y49	Z49	
251	1.2550	416.845894	1529.865021	596.846049	403.265550	1546.459543	200.382165	357.151586	1584.268402	397.907868	488.108444	1488.460778	395.292958	375.612221	1236.923157	683.105989	449.225652	960.826621	796.080431	380.765267	1246.992573	97.622856	437.170762	976.157075	-8.993603	321.546868	1028.826781	403.252360	468.432706	1094.931713	237.840820	475.231755	1100.008359	554.330912	517.370202	1037.068747	268.376248	530.298990	1033.928416	519.671869	343.463281	1068.410968	451.236510	341.949354	1076.391940	351.832518	417.549247	955.672759	576.141456	421.738944	944.074409	210.811098	430.584788	804.390895	592.379080	452.543938	718.717102	588.175883	489.499920	719.507692	579.866036	429.363268	635.176940	577.680002	434.067213	512.408699	558.942297	418.489966	500.049080	455.535690	395.386529	387.428630	593.571006	419.412043	301.390846	575.967006	396.766303	218.279742	569.411916	445.875607	306.509192	545.877953	392.336217	97.745518	555.701521	407.192857	122.406443	470.038142	321.359469	65.373555	507.966508	611.993145	79.116214	510.674956	535.352155	47.916032	577.151209	538.611227	47.840077	464.052184	438.726990	815.229871	188.583799	458.245622	730.078059	192.451232	494.506862	730.626303	201.246789	431.455421	645.587374	195.649121	426.864886	520.400512	216.921990	431.652202	496.865979	314.710411	381.732097	106.844741	221.474277	411.833713	126.644796	301.597504	325.055329	74.127064	264.380052	541.909771	47.318683	295.865847	528.664223	43.091836	181.195655	405.728055	394.113569	190.033190	420.173985	310.811268	207.466057	392.140405	226.360587	207.029438	441.642198	313.602615	239.688036	610.440350	81.851684	243.127689	
252	1.2600	416.859055	1529.879686	596.842788	403.269842	1546.457371	200.386176	357.146620	1584.250191	397.937032	488.118383	1488.471090	395.290762	375.655298	1236.921690	683.119897	449.283165	960.825729	796.073643	380.795989	1246.978306	97.621790	437.199549	976.143680	-8.956531	321.576212	1028.823283	403.276962	468.482039	1094.942021	237.873900	475.267442	1100.018081	554.365341	517.428857	1037.062760	268.417060	530.342795	1033.931265	519.705438	343.501947	1068.405561	451.234157	341.979747	1076.387584	351.852698	417.553023	955.670052	576.163489	421.775212	944.061848	210.810115	430.633470	804.384856	592.386635	452.559465	718.717305	588.192491	489.528001	719.498616	579.896549	429.714132	635.352290	577.959431	434.098286	512.419335	558.954516	418.549075	500.057851	455.560301	395.420566	387.407202	593.582513	419.440239	301.366127	575.951662	396.778373	218.265652	569.407611	445.991036	306.559710	545.924834	392.349521	97.732913	555.697059	407.181666	122.399370	470.024277	321.379985	65.370052	507.976649	612.004781	79.109116	510.679357	535.341164	47.914753	577.156792	538.627048	47.825858	464.056910	438.785170	815.244752	188.612662	458.290477	730.049951	192.517316	494.032336	730.333661	202.466012	431.507846	645.601208	195.667536	426.882067	520.395764	216.921520	431.674392	496.860011	314.724337	381.741481	106.847249	221.463052	411.833715	126.644806	301.597494	325.048892	74.136338	264.384076	541.919321	47.305148	295.863553	528.703372	43.099944	181.206838	405.752341	394.120467	190.033296	420.178832	310.801800	207.471789	392.157237	226.372730	207.037364	441.637768	313.608670	239.686758	610.432734	81.837237	243.129892	
253	1.2650	416.877053	1529.878699	596.852331	403.270738	1546.443343	200.386746	357.146802	1584.236358	397.944014	488.132888	1488.482663	395.303876	375.691216	1236.929764	683.139088	449.345820	960.835926	796.079798	380.797067	1246.964509	97.655267	437.245665	976.127912	-8.921286	321.614462	1028.819242	403.279190	468.546439	1094.935707	237.897404	475.324127	1100.006492	554.371184	517.470155	1037.059683	268.421918	530.358512	1033.929651	519.739135	343.524998	1068.401581	451.246685	342.029410	1076.406573	351.852730	417.583186	955.664343	576.196271	421.828961	944.051776	210.847540	430.658197	804.389835	592.401671	452.602875	718.727112	588.213215	489.559075	719.487122	579.913290	429.591838	635.254923	577.879384	434.113295	512.424510	558.951299	418.563518	500.053127	455.551266	395.443818	387.412720	593.595501	419.450504	301.379550	575.965406	396.779733	218.262525	569.412230	445.915997	306.520889	545.886196	392.340779	97.741889	555.707078	407.200383	122.391754	470.053867	321.397746	65.343992	507.970061	612.013525	79.111560	510.690417	535.318353	47.940323	577.151839	538.611226	47.840174	464.052075	438.828153	815.241856	188.632457	458.337202	730.044534	192.572106	494.576540	730.639180	201.325790	431.546715	645.589550	195.690170	426.931776	520.394426	216.933796	431.701131	496.864773	314.735639	381.731974	106.844888	221.474088	411.833712	126.644790	301.597510	325.042327	74.117231	264.397210	541.908071	47.309275	295.876317	528.706589	43.061942	181.193595	405.757440	394.114811	190.053259	420.173787	310.799530	207.477437	392.179512	226.380654	207.040317	441.664076	313.598891	239.710896	610.442979	81.822981	243.121231	
254	1.2700	416.895825	1529.891293	596.851669	403.249276	1546.455484	200.386164	357.145125	1584.225705	397.927835	488.136532	1488.489887	395.291480	375.721081	1236.932875	683.147006	449.401960	960.848199	796.084367	380.821024	1246.961328	97.671547	437.270303	976.112488	-8.886733	321.634128	1028.824110	403.301971	468.584498	1094.922892	237.922018	475.324440	1100.000389	554.418096	517.519700	1037.057325	268.457739	530.410908	1033.937549	519.768347	343.539789	1068.401007	451.280046	342.059775	1076.402120	351.872899	417.598152	955.680791	576.209367	421.869607	944.059547	210.865557	430.674639	804.382607	592.419401	452.619225	718.719920	588.233886	489.577682	719.494832	579.943426	429.685720	635.283447	577.969658	434.149446	512.420163	558.973272	418.597772	500.062232	455.560442	395.453028	387.419040	593.595032	419.463805	301.373501	575.958511	396.783964	218.249910	569.407711	445.962015	306.531918	545.887982	392.334637	97.719712	555.709858	407.200621	122.401141	470.041726	321.361827	65.377721	507.965836	612.000128	79.097438	510.686230	535.354015	47.932865	577.148731	538.634918	47.820502	464.058156	438.883509	815.246226	188.669689	458.401488	730.078758	192.541627	494.116862	730.341965	202.497215	431.584847	645.582161	195.701497	426.941557	520.384531	216.946902	431.707521	496.861174	314.771763	381.727818	106.849132	221.476392	411.843058	126.627966	301.595617	325.056623	74.133242	264.378964	541.905590	47.311387	295.877988	528.703717	43.064441	181.194332	405.766057	394.128138	190.049098	420.198474	310.827457	207.500302	392.160024	226.370778	207.037941	441.664869	313.576466	239.696010	610.417694	81.838175	243.135190	
